<mxfile host="app.diagrams.net" modified="2020-08-03T02:57:59.109Z" agent="5.0 (Windows NT 10.0; Win64; x64) AppleWebKit/537.36 (KHTML, like Gecko) Chrome/84.0.4147.89 Safari/537.36 Edg/84.0.522.44" etag="b-b-NMSPjtlev9kqE1b8" version="13.5.8" type="github">
  <diagram id="d65q6gTGKV7Wj2uup6vx" name="Page-1">
    <mxGraphModel dx="892" dy="616" grid="1" gridSize="10" guides="1" tooltips="1" connect="1" arrows="1" fold="1" page="1" pageScale="1" pageWidth="827" pageHeight="1169" math="1" shadow="0">
      <root>
        <mxCell id="0" />
        <mxCell id="1" parent="0" />
      </root>
    </mxGraphModel>
  </diagram>
</mxfile>
